# File created by Blade
# Date/Time:  Tue Sep 23 19:22:32 2014
# Frame Rate: 120.000 fps
#------------------------------------------------------
:FULLY-SPECIFIED
:DEGREES
1584
root 3.256052 34.048796 3.663386 102.465057 -24.206236 -32.450380
Spine -59.858245 -16.024435 22.475387
Head -5.343375 18.550780 35.490728
LeftShoulder -22.367704 40.620947 25.795205
LeftArm 76.982181 -70.545540 -123.599064
LeftForeArm 52.946970 -0.000000 109.875620
LeftHand 10.506602 -0.000000 38.339552
LeftHandThumb1 -26.253704 0.000000 33.147579
RightShoulder -55.729322 -50.374358 23.632858
RightArm 35.703140 49.198434 111.053718
RightForeArm 79.069765 0.000000 31.976649
RightHand 13.435379 -0.000000 28.601490
RightHandThumb1 -24.326973 -0.000000 -32.862282
LeftUpLeg -94.749163 25.892805 -5.115801
LeftLeg 12.448171 -0.000000 -0.000000
LeftFoot -10.691491 9.133740 -2.977857
LeftToeBase 4.448132 -0.000000 -0.000000
RightUpLeg -8.743595 -0.631446 -19.084837
RightLeg 114.883710 -0.000000 -0.000000
RightFoot 43.724280 12.941796 -2.751283
RightToeBase 21.931242 -0.000000 -0.000000
1585
root 3.234490 34.063788 3.656839 102.651521 -24.381041 -32.532039
Spine -60.130324 -16.125031 22.496759
Head -4.966322 18.641152 35.514340
LeftShoulder -22.475112 40.673512 25.782751
LeftArm 77.400041 -70.876533 -123.917338
LeftForeArm 53.516102 -0.000000 109.271142
LeftHand 10.144823 -0.000000 38.674553
LeftHandThumb1 -26.253704 0.000000 33.147579
RightShoulder -55.669760 -50.381394 23.527502
RightArm 35.728827 49.362255 110.959530
RightForeArm 79.558114 -0.000000 31.442664
RightHand 13.863017 0.000000 28.409654
RightHandThumb1 -24.326973 -0.000000 -32.862282
LeftUpLeg -94.842450 26.010433 -5.536477
LeftLeg 12.241234 -0.000000 -0.000000
LeftFoot -10.933565 8.694694 -3.708420
LeftToeBase 4.431056 -0.000000 -0.000000
RightUpLeg -8.605014 -0.938751 -18.928257
RightLeg 114.446082 -0.000000 -0.000000
RightFoot 43.862910 13.366287 -2.463155
RightToeBase 22.088776 -0.000000 -0.000000
1586
root 3.213057 34.075966 3.655335 102.843709 -24.585193 -32.611312
Spine -60.410130 -16.188846 22.469121
Head -4.644911 18.716024 35.486998
LeftShoulder -22.570634 40.727412 25.760839
LeftArm 77.861114 -71.127274 -124.277335
LeftForeArm 54.329647 -0.000000 108.649896
LeftHand 9.550187 -0.000000 39.140855
LeftHandThumb1 -26.253704 0.000000 33.147579
RightShoulder -55.684830 -50.403237 23.471550
RightArm 35.874375 49.598824 110.996194
RightForeArm 79.916109 -0.000000 30.865610
RightHand 14.144497 -0.000000 28.138151
RightHandThumb1 -24.326973 -0.000000 -32.862282
LeftUpLeg -94.918298 26.098245 -6.040331
LeftLeg 11.928330 -0.000000 -0.000000
LeftFoot -11.104374 8.322783 -4.279469
LeftToeBase 4.463903 -0.000000 -0.000000
RightUpLeg -8.454254 -1.214194 -18.815238
RightLeg 113.985407 -0.000000 -0.000000
RightFoot 44.134993 13.866556 -2.070737
RightToeBase 21.360199 -0.000000 -0.000000
1587
root 3.191237 34.087940 3.654524 102.940700 -24.749342 -32.644761
Spine -60.611313 -16.288402 22.456910
Head -4.361959 18.780973 35.451409
LeftShoulder -22.654406 40.720194 25.746137
LeftArm 77.975394 -71.392525 -124.311662
LeftForeArm 54.858194 -0.000000 108.076134
LeftHand 9.133248 -0.000000 39.499705
LeftHandThumb1 -26.253704 0.000000 33.147579
RightShoulder -55.724439 -50.371228 23.358596
RightArm 35.880013 49.748254 110.881557
RightForeArm 80.438087 0.000000 30.255633
RightHand 14.184523 0.000000 28.569996
RightHandThumb1 -24.326973 -0.000000 -32.862282
LeftUpLeg -95.013198 26.176500 -6.643127
LeftLeg 11.686521 -0.000000 -0.000000
LeftFoot -11.316800 7.704061 -4.949771
LeftToeBase 4.611066 -0.000000 -0.000000
RightUpLeg -8.219073 -1.550080 -18.645990
RightLeg 113.538617 -0.000000 -0.000000
RightFoot 44.213208 13.930060 -1.801463
RightToeBase 21.481626 -0.000000 -0.000000
1588
root 3.163013 34.100036 3.654565 102.993320 -24.893189 -32.681726
Spine -60.780885 -16.382343 22.438739
Head -4.081261 18.816592 35.394394
LeftShoulder -22.721962 40.739441 25.744096
LeftArm 78.031082 -71.616549 -124.321017
LeftForeArm 55.490906 -0.000000 107.528541
LeftHand 8.695586 0.000000 39.882897
LeftHandThumb1 -26.253704 0.000000 33.147579
RightShoulder -55.730007 -50.397896 23.261446
RightArm 35.821539 49.940694 110.770251
RightForeArm 80.902491 0.000000 29.807131
RightHand 14.431341 -0.000000 28.187694
RightHandThumb1 -24.326973 -0.000000 -32.862282
LeftUpLeg -95.091043 26.277734 -7.240193
LeftLeg 11.497047 -0.000000 -0.000000
LeftFoot -11.521469 7.051573 -5.534960
LeftToeBase 4.803668 -0.000000 -0.000000
RightUpLeg -7.945980 -1.867415 -18.439842
RightLeg 113.085346 -0.000000 -0.000000
RightFoot 44.354370 14.009757 -1.629527
RightToeBase 21.279964 -0.000000 -0.000000
1589
root 3.135885 34.111987 3.657283 103.091989 -25.045500 -32.756879
Spine -60.966457 -16.413453 22.395465
Head -3.826045 18.848478 35.331521
LeftShoulder -22.743261 40.703315 25.804032
LeftArm 77.752386 -71.842682 -124.047626
LeftForeArm 56.133119 -0.000000 107.028722
LeftHand 7.868212 -0.000000 40.466730
LeftHandThumb1 -26.253704 0.000000 33.147579
RightShoulder -55.821310 -50.432685 23.177837
RightArm 35.786933 50.099106 110.672421
RightForeArm 81.400219 -0.000000 29.340017
RightHand 14.483829 -0.000000 27.962795
RightHandThumb1 -24.326973 -0.000000 -32.862282
LeftUpLeg -95.240549 26.391661 -7.909597
LeftLeg 11.324717 -0.000000 -0.000000
LeftFoot -11.611104 6.429338 -5.944584
LeftToeBase 4.974780 -0.000000 -0.000000
RightUpLeg -7.716237 -2.153105 -18.261626
RightLeg 112.647915 -0.000000 -0.000000
RightFoot 44.362934 14.123846 -1.606239
RightToeBase 21.379595 -0.000000 -0.000000
1590
root 3.113560 34.123593 3.662172 103.213108 -25.201935 -32.884980
Spine -61.129715 -16.402955 22.366578
Head -3.585538 18.921935 35.251801
LeftShoulder -22.860773 40.729439 25.767396
LeftArm 77.671568 -71.988266 -123.995778
LeftForeArm 56.583033 0.000000 106.623366
LeftHand 7.522170 -0.000000 40.726416
LeftHandThumb1 -26.253704 0.000000 33.147579
RightShoulder -55.828825 -50.497100 23.048997
RightArm 35.674752 50.234912 110.522469
RightForeArm 81.663981 0.000000 29.001893
RightHand 14.672637 0.000000 27.374988
RightHandThumb1 -24.326973 -0.000000 -32.862282
LeftUpLeg -95.407195 26.536735 -8.584861
LeftLeg 11.168521 -0.000000 -0.000000
LeftFoot -11.649993 5.871751 -6.240719
LeftToeBase 5.208334 -0.000000 -0.000000
RightUpLeg -7.533048 -2.425195 -18.130177
RightLeg 112.238132 -0.000000 -0.000000
RightFoot 44.338051 14.096506 -1.817815
RightToeBase 21.568103 -0.000000 -0.000000
1591
root 3.094998 34.132677 3.667932 103.297251 -25.352267 -32.979749
Spine -61.265546 -16.402007 22.346525
Head -3.382420 18.982331 35.134686
LeftShoulder -22.958136 40.687318 25.742362
LeftArm 77.551335 -72.133274 -123.950791
LeftForeArm 56.804651 -0.000000 106.292050
LeftHand 7.404241 -0.000000 40.876140
LeftHandThumb1 -26.253704 0.000000 33.147579
RightShoulder -55.882829 -50.595492 22.968076
RightArm 35.640534 50.355113 110.398627
RightForeArm 81.890829 -0.000000 28.519478
RightHand 14.993880 -0.000000 26.884000
RightHandThumb1 -24.326973 -0.000000 -32.862282
LeftUpLeg -95.556153 26.640745 -9.209736
LeftLeg 11.042237 -0.000000 -0.000000
LeftFoot -11.607215 5.381689 -6.419091
LeftToeBase 5.272212 -0.000000 -0.000000
RightUpLeg -7.312977 -2.682041 -17.993198
RightLeg 111.828758 -0.000000 -0.000000
RightFoot 44.338961 13.987014 -1.990196
RightToeBase 21.635736 -0.000000 -0.000000
